<svg xmlns="http://www.w3.org/2000/svg" width="460" height="262" viewBox="0 0 460 262" font-family="ui-monospace, SFMono-Regular, Menlo, Consolas, monospace"><rect width="460" height="262" rx="10" fill="#ffffff"/><text x="16" y="26" font-size="13" fill="#57606a">languages across 20 public repos</text><text x="16" y="57" font-size="12" fill="#1f2328">Jupyter Notebook</text><rect x="96" y="44" width="290" height="15" rx="3" fill="#0969da"/><text x="394" y="56" font-size="11" fill="#57606a">89%</text><text x="16" y="81" font-size="12" fill="#1f2328">JavaScript</text><rect x="96" y="68" width="16" height="15" rx="3" fill="#f1e05a"/><text x="120" y="80" font-size="11" fill="#57606a">5%</text><text x="16" y="105" font-size="12" fill="#1f2328">Python</text><rect x="96" y="92" width="15" height="15" rx="3" fill="#3572A5"/><text x="119" y="104" font-size="11" fill="#57606a">4%</text><text x="16" y="129" font-size="12" fill="#1f2328">TeX</text><rect x="96" y="116" width="4" height="15" rx="3" fill="#0969da"/><text x="108" y="128" font-size="11" fill="#57606a">1%</text><text x="16" y="153" font-size="12" fill="#1f2328">CSS</text><rect x="96" y="140" width="3" height="15" rx="3" fill="#563d7c"/><text x="107" y="152" font-size="11" fill="#57606a">0%</text><text x="16" y="177" font-size="12" fill="#1f2328">Java</text><rect x="96" y="164" width="3" height="15" rx="3" fill="#b07219"/><text x="107" y="176" font-size="11" fill="#57606a">0%</text><text x="16" y="201" font-size="12" fill="#1f2328">HTML</text><rect x="96" y="188" width="3" height="15" rx="3" fill="#e34c26"/><text x="107" y="200" font-size="11" fill="#57606a">0%</text><text x="16" y="225" font-size="12" fill="#1f2328">TypeScript</text><rect x="96" y="212" width="3" height="15" rx="3" fill="#3178c6"/><text x="107" y="224" font-size="11" fill="#57606a">0%</text><text x="448" y="252" font-size="10" fill="#d0d7de" text-anchor="end">live from github api</text></svg>